<svg width="20" height="20" viewBox="0 0 20 20" fill="none" xmlns="http://www.w3.org/2000/svg">
<g clip-path="url(#clip0_536_2760)">
<path d="M9.99326 10.573C10.5842 10.573 11.1694 10.4566 11.7153 10.2305C12.2613 10.0043 12.7574 9.67284 13.1752 9.25498C13.5931 8.83712 13.9246 8.34104 14.1507 7.79508C14.3769 7.24911 14.4933 6.66395 14.4933 6.073C14.4933 5.48205 14.3769 4.89689 14.1507 4.35092C13.9246 3.80496 13.5931 3.30888 13.1752 2.89102C12.7574 2.47316 12.2613 2.14169 11.7153 1.91554C11.1694 1.6894 10.5842 1.573 9.99326 1.573C8.79979 1.573 7.6552 2.04711 6.81128 2.89102C5.96737 3.73493 5.49326 4.87953 5.49326 6.073C5.49326 7.26647 5.96737 8.41107 6.81128 9.25498C7.6552 10.0989 8.79979 10.573 9.99326 10.573ZM10.0003 3.18547e-07C11.3175 -0.000428752 12.5982 0.432609 13.6449 1.2323C14.6916 2.03199 15.446 3.15388 15.7918 4.42489C16.1376 5.6959 16.0555 7.04537 15.5582 8.26511C15.061 9.48484 14.1761 10.507 13.0403 11.174C16.7283 12.284 19.4983 15.392 19.9953 19.252C20.0423 19.619 19.7693 19.952 19.3853 19.997C19.0023 20.042 18.6523 19.782 18.6053 19.415C18.0653 15.225 14.4363 12.07 10.0353 12.07C5.61026 12.07 1.93426 15.231 1.39526 19.415C1.34826 19.782 0.998263 20.042 0.615263 19.997C0.231263 19.952 -0.0417368 19.619 0.00526325 19.252C0.501263 15.408 3.28626 12.304 6.98026 11.184C5.84095 10.5201 4.95208 9.4993 4.4511 8.27953C3.95012 7.05975 3.86492 5.70891 4.20868 4.43585C4.55244 3.1628 5.30601 2.03844 6.35288 1.23663C7.39976 0.434818 8.68161 0.000209262 10.0003 3.18547e-07Z" fill="#88898A"/>
</g>
<defs>
<clipPath id="clip0_536_2760">
<rect width="20" height="20" fill="white"/>
</clipPath>
</defs>
</svg>
